PathFileType  4	(X/Y/Z) C:\Users\antoi\Documents\MyRepositories\mobilecap\ResultsAnalysis
DataRate	CameraRate	NumFrames	NumMarkers	Units	OrigDataRate	OrigDataStartFrame	OrigNumFrames
100.0	100.0	4	51	mm	100.0	1421	1623
Frame#	Time	r_knee			r_shank_antsup			r_ankle			r_calc			r_5meta			r_toe			L_knee			L_shank_antsup			L_ankle			L_calc			L_5meta			L_toe			r_sh2			r_sh3			r_sh4			L_sh2			L_sh3			r_thigh1			r_thigh2			r_thigh3			r_thigh4			r_thigh5			L_thigh1			L_thigh2			L_thigh3			L_thigh4			r.ASIS			r.PSIS			L.ASIS			L.PSIS			C7			R_Shoulder			L_Shoulder			R_Sternum			L_Sternum			R_humerus			R_elbow_med			R_elbow_lat			R_forearm			R_wrist_radius			R_wrist_ulna			L_humerus			L_elbow_med			L_elbow_lat			L_forearm			L_wrist_radius			L_wrist_ulna			R_HJC			L_HJC			R_HJC_reg			L_HJC_reg			
		X1	Y1	Z1	X2	Y2	Z2	X3	Y3	Z3	X4	Y4	Z4	X5	Y5	Z5	X6	Y6	Z6	X7	Y7	Z7	X8	Y8	Z8	X9	Y9	Z9	X10	Y10	Z10	X11	Y11	Z11	X12	Y12	Z12	X13	Y13	Z13	X14	Y14	Z14	X15	Y15	Z15	X16	Y16	Z16	X17	Y17	Z17	X18	Y18	Z18	X19	Y19	Z19	X20	Y20	Z20	X21	Y21	Z21	X22	Y22	Z22	X23	Y23	Z23	X24	Y24	Z24	X25	Y25	Z25	X26	Y26	Z26	X27	Y27	Z27	X28	Y28	Z28	X29	Y29	Z29	X30	Y30	Z30	X31	Y31	Z31	X32	Y32	Z32	X33	Y33	Z33	X34	Y34	Z34	X35	Y35	Z35	X36	Y36	Z36	X37	Y37	Z37	X38	Y38	Z38	X39	Y39	Z39	X40	Y40	Z40	X41	Y41	Z41	X42	Y42	Z42	X43	Y43	Z43	X44	Y44	Z44	X45	Y45	Z45	X46	Y46	Z46	X47	Y47	Z47	X48	Y48	Z48	X49	Y49	Z49	X50	Y50	Z50	X51	Y51	Z51	

1421	14.20000000	-117.47817	493.21847	-386.69531	-111.31806	417.67863	-353.85031	-291.88320	104.75228	-381.68743	-348.64982	53.49559	-431.50490	-167.61986	37.45075	-309.76128	-122.65633	62.80641	-361.64451	-110.84710	494.41730	-904.94478	-112.69362	384.38883	-930.76805	-275.21666	100.54016	-893.47967	-342.63425	54.35168	-853.68649	-131.53335	31.93202	-948.77713	-101.59495	60.60186	-887.51619	-160.68492	315.60033	-348.89115	-178.66649	449.68400	-361.52758	-235.21160	348.24397	-361.10024	-191.13142	427.84236	-919.80790	-237.50456	316.58178	-918.90570	-266.29391	769.12177	-416.24724	-183.70127	699.23737	-401.33208	-208.91495	640.29474	-371.83914	-339.96963	681.73163	-421.28153	-251.42573	610.82037	-390.98799	-265.96989	769.24696	-858.77501	-164.97992	679.11919	-888.04438	-344.39285	679.73822	-851.58542	-239.12764	597.90425	-891.56666	-265.15924	842.20719	-508.10417	-421.77262	949.02994	-593.95652	-263.27475	828.71917	-766.88553	-421.76569	943.18934	-697.14105	-218.10401	1389.20627	-665.49920	-159.18092	1347.29609	-487.90943	-147.47064	1340.94308	-823.07530	-81.99176	1293.16149	-626.30344	-80.59836	1288.13106	-679.80606	-276.73870	1122.34678	-371.59935	-333.41607	1026.90311	-432.05827	-328.42215	1048.30160	-346.66614	-228.24097	924.68115	-311.93480	-155.90729	839.03416	-307.74196	-194.88451	822.60243	-293.79716	-245.12636	1113.39300	-928.57685	-317.46501	1025.16703	-871.29121	-297.65018	1039.52973	-946.13884	-186.06487	903.90223	-969.39204	-112.68933	841.45765	-964.74016	-141.83021	815.14502	-974.78113	-372.38761	802.33980	-514.22165	-368.12105	789.31474	-744.18435	-361.37100	801.12505	-542.59553	-361.35824	791.45987	-713.35007	
1422	14.21000000	-115.25436	491.69396	-386.21132	-109.21682	416.43908	-353.39680	-291.74733	104.66893	-381.97372	-348.61792	53.49642	-431.52325	-167.64454	37.44108	-309.81917	-122.65512	62.82563	-361.63120	-109.25794	493.24282	-904.10680	-111.24087	383.70769	-930.58175	-275.14249	100.57195	-893.23629	-342.59605	54.38934	-853.57826	-131.54859	32.01795	-948.74258	-101.61252	60.62455	-887.46378	-159.25009	314.64682	-348.83332	-176.26920	448.89769	-361.07822	-233.52424	347.74356	-360.87687	-189.59310	427.29375	-919.16187	-236.25395	316.49503	-918.67587	-267.47742	765.34706	-415.68763	-184.03332	696.52315	-400.93174	-208.42774	637.21015	-371.41718	-340.24084	676.96044	-420.53968	-250.56765	607.27982	-390.61219	-267.50743	766.09659	-857.59920	-165.29050	677.40417	-886.87280	-345.05560	675.78729	-851.63142	-238.58212	595.50461	-891.55774	-266.31597	836.65897	-507.61646	-423.18158	943.31260	-593.58928	-265.03775	822.87777	-766.61450	-423.40299	937.49562	-696.58382	-216.88953	1382.15274	-665.57555	-157.71098	1339.99503	-488.05543	-146.38343	1333.52226	-823.03213	-80.93991	1285.24864	-626.10399	-79.85710	1280.38071	-679.97058	-276.24569	1115.71329	-371.44465	-333.60164	1020.62948	-431.73976	-328.27217	1042.09621	-346.15611	-228.31166	918.23105	-311.69737	-156.17518	832.39760	-307.81026	-195.07758	816.13905	-293.45286	-244.79179	1106.32944	-928.85971	-317.17171	1018.06264	-871.33855	-297.43177	1032.59249	-946.44109	-186.01718	896.71137	-969.94761	-112.81730	834.42649	-965.50772	-141.85514	808.04908	-975.54006	-373.61837	796.78518	-513.63728	-369.80049	783.49052	-743.59543	-362.63526	795.29394	-541.92454	-362.99934	785.64112	-712.82693	
1423	14.22000000	-112.99365	490.31031	-385.16805	-107.03257	415.16184	-353.01978	-291.59939	104.66356	-382.22845	-348.57428	53.51636	-431.55700	-167.66430	37.44206	-309.90776	-122.61122	62.88921	-361.57036	-107.57373	492.21533	-903.65562	-109.82956	382.96696	-930.24258	-275.07636	100.59676	-892.99953	-342.58591	54.38406	-853.44087	-131.56120	32.08321	-948.71089	-101.63015	60.63242	-887.41801	-157.62337	313.63671	-348.93494	-173.81685	448.19573	-360.63765	-231.77655	347.19403	-360.55204	-187.97311	426.87375	-918.65769	-235.06192	316.39570	-918.45654	-268.73194	761.56448	-415.24107	-184.18986	693.56957	-400.61561	-207.83734	634.07241	-371.18951	-340.25406	672.12389	-419.96806	-249.57817	603.57452	-390.32333	-269.05020	762.90271	-856.18417	-165.59403	675.62110	-885.71776	-345.60873	671.94208	-851.65285	-237.92769	593.17617	-891.77227	-267.33916	830.93556	-507.37148	-424.52128	937.72016	-593.03177	-266.21028	816.47950	-765.42923	-424.88208	931.83608	-696.07381	-215.73249	1375.14849	-665.70494	-156.33085	1332.70418	-488.21763	-145.25613	1326.11436	-823.07514	-80.01287	1277.47760	-626.03677	-79.18797	1272.68220	-680.16970	-275.79963	1109.06481	-371.36431	-333.89108	1014.42227	-431.41604	-328.12895	1035.90236	-345.82330	-228.40534	911.67446	-311.60749	-156.56789	825.74993	-307.87021	-195.40486	809.55535	-293.27656	-244.46740	1099.15406	-928.95344	-317.03944	1011.00236	-871.28737	-297.32986	1025.70130	-946.68226	-186.14788	889.38705	-970.32508	-113.05303	827.12574	-966.21001	-142.18332	800.77000	-976.22416	-374.87793	791.28946	-512.77949	-371.22318	777.41806	-742.69885	-363.55480	789.57699	-541.36636	-364.15209	779.85130	-711.67682	
1424	14.23000000	-110.64186	488.96571	-384.38676	-104.76447	413.77257	-352.94322	-291.45261	104.75511	-382.38140	-348.50379	53.56418	-431.62374	-167.64215	37.52334	-310.01695	-122.58693	62.98488	-361.51874	-105.86483	491.31655	-903.62396	-108.47826	382.22440	-929.89896	-275.04021	100.63369	-892.75164	-342.60415	54.38542	-853.34215	-131.57474	32.12338	-948.68388	-101.66069	60.63057	-887.38448	-155.86274	312.58608	-349.05296	-171.53955	447.35049	-360.42294	-230.02137	346.61984	-360.32981	-186.28020	426.64084	-918.48742	-233.97200	316.31662	-918.35208	-269.82171	757.73659	-414.98807	-184.21215	690.66059	-400.42511	-207.14792	630.97265	-371.11942	-340.00693	667.31795	-419.49531	-248.49446	599.93445	-389.98427	-270.60688	759.63472	-854.87349	-165.97881	673.75516	-884.73402	-346.06514	667.92243	-851.62749	-237.31317	590.60790	-891.79674	-268.31749	825.14802	-507.11827	-425.80226	932.15858	-592.37175	-267.76437	810.74842	-765.42623	-426.27654	926.16611	-695.61303	-214.57383	1368.21017	-665.81114	-154.99004	1325.45742	-488.37707	-144.18732	1318.72074	-823.27846	-79.29294	1269.86698	-626.19423	-78.60784	1265.06723	-680.35576	-275.35057	1102.47962	-371.29959	-333.90002	1007.98116	-431.24655	-328.06004	1029.71001	-345.54620	-228.57687	905.05739	-311.66029	-157.04334	819.10267	-307.90936	-195.79498	802.96839	-293.20213	-244.15567	1091.96447	-928.89725	-316.94397	1004.06054	-871.35716	-297.29208	1018.79545	-946.79292	-186.49140	882.07945	-970.69558	-113.51192	819.65310	-966.76498	-142.78057	793.31333	-976.67721	-375.92882	785.58227	-512.39163	-372.80074	771.76748	-742.32258	-364.80617	783.92470	-541.02106	-365.58977	774.03031	-711.48212	
